<svg width="40" height="54" viewBox="0 0 40 54" fill="none" xmlns="http://www.w3.org/2000/svg">
<g id="Path">
<path id="figma" d="M20.5003 27C20.5003 22.3539 24.7026 18.5 30.0002 18.5C35.2975 18.5 39.5 22.3539 39.5 27C39.5 31.6462 35.2975 35.5 30.0002 35.5C24.7026 35.5 20.5003 31.6462 20.5003 27Z" stroke="black"/>
<path id="figma_2" d="M0.5 45C0.5 40.3539 4.70238 36.5 9.99985 36.5H19.4997V45C19.4997 49.6462 15.2974 53.5 9.99985 53.5C4.70237 53.5 0.5 49.6462 0.5 45Z" stroke="black"/>
<path id="figma_3" d="M30.0002 17.5H20.5003V0.5H30.0002C35.2977 0.5 39.5 4.35383 39.5 9.00001C39.5 13.6462 35.2977 17.5 30.0002 17.5Z" stroke="black"/>
<path id="figma_4" d="M9.99985 17.5C4.70237 17.5 0.5 13.6462 0.5 9.00002C0.5 4.35383 4.70237 0.5 9.99985 0.5H19.4997V17.5H9.99985Z" stroke="black"/>
<path id="figma_5" d="M9.99985 35.5C4.70237 35.5 0.5 31.6462 0.5 27C0.5 22.3539 4.70238 18.5 9.99985 18.5H19.4997V35.5H9.99985Z" stroke="black"/>
</g>
</svg>
