<svg xmlns="http://www.w3.org/2000/svg" width="40" height="40" viewBox="0 0 40 40" fill="none">
  <path d="M1.53857 14.6667C1.53857 10.0714 1.53857 7.77368 2.43288 6.01856C3.21953 4.47464 4.47476 3.21941 6.01868 2.43276C7.77381 1.53845 10.0715 1.53845 14.6668 1.53845H25.3334C29.9287 1.53845 32.2264 1.53845 33.9816 2.43276C35.5254 3.21941 36.7807 4.47464 37.5673 6.01856C38.4617 7.77368 38.4617 10.0714 38.4617 14.6667V25.3333C38.4617 29.9286 38.4617 32.2263 37.5673 33.9814C36.7807 35.5253 35.5254 36.7806 33.9816 37.5672C32.2264 38.4615 29.9287 38.4615 25.3334 38.4615H14.6668C10.0715 38.4615 7.77381 38.4615 6.01868 37.5672C4.47476 36.7806 3.21953 35.5253 2.43288 33.9814C1.53857 32.2263 1.53857 29.9286 1.53857 25.3333V14.6667Z" fill="url(#paint0_linear_14_10233)"/>
  <path fill-rule="evenodd" clip-rule="evenodd" d="M25.3334 3.07691H14.6668C12.3438 3.07691 10.694 3.07811 9.40293 3.18359C8.12986 3.28761 7.34165 3.48531 6.71709 3.80354C5.46268 4.44269 4.44282 5.46255 3.80366 6.71697C3.48543 7.34153 3.28773 8.12973 3.18371 9.40281C3.07823 10.6939 3.07704 12.3436 3.07704 14.6667V25.3333C3.07704 27.6564 3.07823 29.3061 3.18371 30.5972C3.28773 31.8702 3.48543 32.6585 3.80366 33.283C4.44282 34.5374 5.46268 35.5573 6.71709 36.1965C7.34165 36.5147 8.12986 36.7124 9.40293 36.8164C10.694 36.9219 12.3438 36.9231 14.6668 36.9231H25.3334C27.6565 36.9231 29.3062 36.9219 30.5973 36.8164C31.8704 36.7124 32.6586 36.5147 33.2831 36.1965C34.5376 35.5573 35.5574 34.5374 36.1966 33.283C36.5148 32.6585 36.7125 31.8702 36.8165 30.5972C36.922 29.3061 36.9232 27.6564 36.9232 25.3333V14.6667C36.9232 12.3436 36.922 10.6939 36.8165 9.40281C36.7125 8.12973 36.5148 7.34153 36.1966 6.71697C35.5574 5.46255 34.5376 4.44269 33.2831 3.80354C32.6586 3.48531 31.8704 3.28761 30.5973 3.18359C29.3062 3.07811 27.6565 3.07691 25.3334 3.07691ZM2.43288 6.01856C1.53857 7.77368 1.53857 10.0714 1.53857 14.6667V25.3333C1.53857 29.9286 1.53857 32.2263 2.43288 33.9814C3.21953 35.5253 4.47476 36.7806 6.01868 37.5672C7.77381 38.4615 10.0715 38.4615 14.6668 38.4615H25.3334C29.9287 38.4615 32.2264 38.4615 33.9816 37.5672C35.5254 36.7806 36.7807 35.5253 37.5673 33.9814C38.4617 32.2263 38.4617 29.9286 38.4617 25.3333V14.6667C38.4617 10.0714 38.4617 7.77368 37.5673 6.01856C36.7807 4.47464 35.5254 3.21941 33.9816 2.43276C32.2264 1.53845 29.9287 1.53845 25.3334 1.53845H14.6668C10.0715 1.53845 7.77381 1.53845 6.01868 2.43276C4.47476 3.21941 3.21953 4.47464 2.43288 6.01856Z" fill="black"/>
  <path d="M1.53857 14.6667C1.53857 10.0714 1.53857 7.77368 2.43288 6.01856C3.21953 4.47464 4.47476 3.21941 6.01868 2.43276C7.77381 1.53845 10.0715 1.53845 14.6668 1.53845H25.3334C29.9287 1.53845 32.2264 1.53845 33.9816 2.43276C35.5254 3.21941 36.7807 4.47464 37.5673 6.01856C38.4617 7.77368 38.4617 10.0714 38.4617 14.6667V25.3333C38.4617 29.9286 38.4617 32.2263 37.5673 33.9814C36.7807 35.5253 35.5254 36.7806 33.9816 37.5672C32.2264 38.4615 29.9287 38.4615 25.3334 38.4615H14.6668C10.0715 38.4615 7.77381 38.4615 6.01868 37.5672C4.47476 36.7806 3.21953 35.5253 2.43288 33.9814C1.53857 32.2263 1.53857 29.9286 1.53857 25.3333V14.6667Z" fill="url(#paint1_linear_14_10233)"/>
  <path fill-rule="evenodd" clip-rule="evenodd" d="M25.401 2.34465e-07C27.6413 -1.1503e-05 29.4167 -2.07929e-05 30.8477 0.116898C32.3111 0.236459 33.5493 0.485912 34.6799 1.06199C36.5133 1.99614 38.0038 3.48672 38.938 5.3201C39.5141 6.45072 39.7635 7.68892 39.8831 9.15226C40 10.5833 40 12.3587 40 14.5989V25.4011C40 27.6413 40 29.4167 39.8831 30.8477C39.7635 32.3111 39.5141 33.5493 38.938 34.6799C38.0038 36.5133 36.5133 38.0038 34.6799 38.938C33.5493 39.5141 32.3111 39.7635 30.8477 39.8831C29.4167 40 27.6413 40 25.4011 40H14.5989C12.3587 40 10.5833 40 9.15226 39.8831C7.68892 39.7635 6.45072 39.5141 5.3201 38.938C3.48672 38.0038 1.99614 36.5133 1.06199 34.6799C0.485911 33.5493 0.23646 32.3111 0.116898 30.8477C-2.07929e-05 29.4167 -1.15031e-05 27.6413 2.34466e-07 25.401V14.599C-1.15031e-05 12.3587 -2.07929e-05 10.5833 0.116898 9.15226C0.23646 7.68892 0.485912 6.45072 1.06199 5.3201C1.99614 3.48672 3.48672 1.99614 5.3201 1.06199C6.45072 0.485911 7.68892 0.236459 9.15226 0.116898C10.5833 -2.07929e-05 12.3587 -1.1503e-05 14.599 2.34465e-07H25.401ZM2.43277 6.01857C1.53846 7.77369 1.53846 10.0714 1.53846 14.6667V25.3333C1.53846 29.9286 1.53846 32.2263 2.43277 33.9814C3.21942 35.5253 4.47465 36.7806 6.01856 37.5672C7.77369 38.4615 10.0714 38.4615 14.6667 38.4615H25.3333C29.9286 38.4615 32.2263 38.4615 33.9814 37.5672C35.5253 36.7806 36.7806 35.5253 37.5672 33.9814C38.4615 32.2263 38.4615 29.9286 38.4615 25.3333V14.6667C38.4615 10.0714 38.4615 7.77369 37.5672 6.01857C36.7806 4.47465 35.5253 3.21942 33.9814 2.43277C32.2263 1.53846 29.9286 1.53846 25.3333 1.53846H14.6667C10.0714 1.53846 7.77369 1.53846 6.01856 2.43277C4.47465 3.21942 3.21942 4.47465 2.43277 6.01857Z" fill="black"/>
  <path fill-rule="evenodd" clip-rule="evenodd" d="M25.401 2.34465e-07C27.6413 -1.1503e-05 29.4167 -2.07929e-05 30.8477 0.116898C32.3111 0.236459 33.5493 0.485912 34.6799 1.06199C36.5133 1.99614 38.0038 3.48672 38.938 5.3201C39.5141 6.45072 39.7635 7.68892 39.8831 9.15226C40 10.5833 40 12.3587 40 14.5989V25.4011C40 27.6413 40 29.4167 39.8831 30.8477C39.7635 32.3111 39.5141 33.5493 38.938 34.6799C38.0038 36.5133 36.5133 38.0038 34.6799 38.938C33.5493 39.5141 32.3111 39.7635 30.8477 39.8831C29.4167 40 27.6413 40 25.4011 40H14.5989C12.3587 40 10.5833 40 9.15226 39.8831C7.68892 39.7635 6.45072 39.5141 5.3201 38.938C3.48672 38.0038 1.99614 36.5133 1.06199 34.6799C0.485911 33.5493 0.23646 32.3111 0.116898 30.8477C-2.07929e-05 29.4167 -1.15031e-05 27.6413 2.34466e-07 25.401V14.599C-1.15031e-05 12.3587 -2.07929e-05 10.5833 0.116898 9.15226C0.23646 7.68892 0.485912 6.45072 1.06199 5.3201C1.99614 3.48672 3.48672 1.99614 5.3201 1.06199C6.45072 0.485911 7.68892 0.236459 9.15226 0.116898C10.5833 -2.07929e-05 12.3587 -1.1503e-05 14.599 2.34465e-07H25.401ZM2.43277 6.01857C1.53846 7.77369 1.53846 10.0714 1.53846 14.6667V25.3333C1.53846 29.9286 1.53846 32.2263 2.43277 33.9814C3.21942 35.5253 4.47465 36.7806 6.01856 37.5672C7.77369 38.4615 10.0714 38.4615 14.6667 38.4615H25.3333C29.9286 38.4615 32.2263 38.4615 33.9814 37.5672C35.5253 36.7806 36.7806 35.5253 37.5672 33.9814C38.4615 32.2263 38.4615 29.9286 38.4615 25.3333V14.6667C38.4615 10.0714 38.4615 7.77369 37.5672 6.01857C36.7806 4.47465 35.5253 3.21942 33.9814 2.43277C32.2263 1.53846 29.9286 1.53846 25.3333 1.53846H14.6667C10.0714 1.53846 7.77369 1.53846 6.01856 2.43277C4.47465 3.21942 3.21942 4.47465 2.43277 6.01857Z" fill="url(#paint2_linear_14_10233)"/>
  <path d="M21.4731 16.7082L13.2628 15.1839C12.8063 15.0991 12.3753 15.6384 12.5854 16.0318L16.3547 23.0924C16.6859 23.7128 17.269 24.1389 17.9851 24.2837L26.1347 25.932C26.5886 26.024 27.0265 25.4898 26.8229 25.0921L23.1642 17.9438C22.8304 17.2916 22.2222 16.8472 21.4732 16.7082" fill="url(#paint3_linear_14_10233)"/>
  <path d="M16.3551 18.3214V26.8495C16.3551 27.2551 16.7121 27.5328 17.0414 27.3834L25.4184 23.66C25.5118 23.6176 25.592 23.544 25.6484 23.4488C25.7049 23.3536 25.7351 23.2412 25.735 23.1261V14.598C25.735 14.1924 25.3779 13.9147 25.0486 14.0641L16.6716 17.7875C16.5782 17.8299 16.4981 17.9035 16.4416 17.9987C16.3852 18.0939 16.355 18.2063 16.355 18.3214" fill="url(#paint4_linear_14_10233)"/>
  <path d="M25.8586 21.4455L23.3725 22.8201L23.1201 22.9598L17.872 25.8392C17.5394 26.023 17.1147 25.7454 17.1147 25.3222V17.3178C17.1147 17.1647 17.1833 17.0325 17.2753 16.933C17.313 16.89 17.3557 16.8533 17.4023 16.824C17.5277 16.7378 17.7066 16.7148 17.8587 16.7837L25.8168 20.3943C26.2213 20.5781 26.2531 21.2272 25.8586 21.4454" fill="url(#paint5_linear_14_10233)"/>
  <path d="M25.6932 21.4358L23.2072 22.8104L17.1099 16.9234C17.1475 16.8804 17.1903 16.8437 17.2368 16.8144C17.3622 16.7282 17.5412 16.7052 17.6932 16.7741L25.6513 20.3847C26.0559 20.5685 26.0877 21.2176 25.6932 21.4358" fill="black" fill-opacity="0.25"/>
  <defs>
    <linearGradient id="paint0_linear_14_10233" x1="20.0001" y1="-10.2564" x2="20.0001" y2="38.4615" gradientUnits="userSpaceOnUse">
      <stop stop-color="#4C4C57"/>
      <stop offset="0.444444" stop-color="#05050A"/>
      <stop offset="1"/>
    </linearGradient>
    <linearGradient id="paint1_linear_14_10233" x1="20.0001" y1="-10.2564" x2="20.0001" y2="38.4615" gradientUnits="userSpaceOnUse">
      <stop stop-color="#4C4C57"/>
      <stop offset="0.444444" stop-color="#05050A"/>
      <stop offset="1"/>
    </linearGradient>
    <linearGradient id="paint2_linear_14_10233" x1="20" y1="1.53846" x2="20" y2="38.4615" gradientUnits="userSpaceOnUse">
      <stop stop-color="white" stop-opacity="0.6"/>
      <stop offset="1" stop-color="white" stop-opacity="0.2"/>
    </linearGradient>
    <linearGradient id="paint3_linear_14_10233" x1="17.5367" y1="15.0578" x2="14.5443" y2="20.0178" gradientUnits="userSpaceOnUse">
      <stop stop-color="#AD7EE1"/>
      <stop offset="0.640625" stop-color="#636FCB"/>
      <stop offset="1" stop-color="#2A64BB" stop-opacity="0"/>
    </linearGradient>
    <linearGradient id="paint4_linear_14_10233" x1="21.045" y1="14.0232" x2="21.045" y2="27.4244" gradientUnits="userSpaceOnUse">
      <stop stop-color="#AD7EE1"/>
      <stop offset="1" stop-color="#2A64BB"/>
    </linearGradient>
    <linearGradient id="paint5_linear_14_10233" x1="26.0431" y1="18.6076" x2="18.085" y2="18.6076" gradientUnits="userSpaceOnUse">
      <stop stop-color="#6AEAFE"/>
      <stop offset="0.0520651" stop-color="#37D1E9"/>
      <stop offset="0.791032" stop-color="#1B5A8C"/>
      <stop offset="1" stop-color="#2C5491"/>
    </linearGradient>
  </defs>
</svg>