<svg width="14" height="14" viewBox="0 0 14 14" fill="none" xmlns="http://www.w3.org/2000/svg">
<g id="Component 1">
<path 
    id="Vector" 
    d="M2.82 13.05H10.94C12.34 13.05 13.04 12.35 13.04 10.98V2.79998C13.04 1.41998 12.34 0.72998 10.94 0.72998H2.82C1.42 0.72998 0.720001 1.41998 0.720001 2.79998V10.98C0.720001 12.36 1.42 13.05 2.82 13.05ZM2.83 11.98C2.16 11.98 1.79 11.62 1.79 10.93V2.85998C1.79 2.15998 2.16 1.79998 2.83 1.79998H10.93C11.59 1.79998 11.97 2.15998 11.97 2.85998V10.93C11.97 11.63 11.59 11.98 10.93 11.98H2.83Z" 
    fill="#E8E8E8" 
    fill-opacity="0.4"/>
<path 
    id="Vector_2" 
    d="M3.95 7.34011C3.95 7.51011 4.09 7.64011 4.25 7.64011H6.53L5.32 10.8901C5.16 11.3101 5.62 11.5501 5.89 11.2001L9.57 6.60011C9.64 6.51011 9.67 6.42011 9.67 6.33011C9.67 6.16011 9.54 6.04011 9.37 6.04011H7.1L8.3 2.80011C8.47 2.37011 8 2.14011 7.72 2.48011L4.06 7.08011C3.98937 7.15311 3.94686 7.24876 3.94 7.35011L3.95 7.34011Z" 
    fill="#E8E8E8" 
    fill-opacity="0.4"/>
</g>
</svg>
