<svg xmlns="http://www.w3.org/2000/svg" width="16" height="17" viewBox="0 0 16 17" fill="none">
  <path fill-rule="evenodd" clip-rule="evenodd" d="M7.27194 5.32399C7.57494 5.21799 7.57494 5.03199 7.27194 4.91399L5.62494 4.28399C5.33294 4.17899 4.99494 3.83999 4.87794 3.53699L4.24794 1.88999C4.14194 1.58599 3.95494 1.58599 3.83794 1.88999L3.20794 3.53699C3.10294 3.82899 2.76394 4.16699 2.45994 4.28399L0.813937 4.91399C0.509937 5.01999 0.509937 5.20699 0.813937 5.32399L2.45994 5.95399C2.75194 6.05899 3.08994 6.39799 3.20794 6.70199L3.83794 8.34799C3.94294 8.65199 4.12994 8.65199 4.24794 8.34799L4.87794 6.70199C4.98294 6.40999 5.32194 6.07099 5.62494 5.95399L7.27194 5.32399ZM15.2949 11.093C16.2299 10.859 16.2299 10.473 15.2949 10.24L13.2279 9.72599C12.2939 9.49299 11.3359 8.53599 11.1029 7.60099L10.5889 5.53399C10.3549 4.59999 9.96894 4.59999 9.73594 5.53399L9.22194 7.59999C8.98894 8.53399 8.03194 9.49199 7.09694 9.72499L5.02994 10.24C4.09594 10.474 4.09594 10.86 5.02994 11.093L7.09694 11.607C8.03094 11.84 8.98894 12.797 9.22194 13.732L9.73594 15.799C9.96994 16.734 10.3559 16.734 10.5889 15.799L11.1029 13.732C11.3359 12.798 12.2929 11.84 13.2279 11.607L15.2949 11.093Z" fill="#6C79EF"/>
</svg>